<svg width="224" height="203" viewBox="0 0 224 203" fill="none" xmlns="http://www.w3.org/2000/svg">
<rect width="224" height="203" rx="24" fill="#FF7B00"/>
<path d="M159.5 127.727C159.5 140.932 139.242 116.811 114.251 116.811C89.2613 116.811 69.5 143.336 69.5 130.131C69.5 116.926 89.2613 103.816 114.251 103.816C139.242 103.816 159.5 114.522 159.5 127.727Z" fill="#FADAAD"/>
<path d="M62.3794 105.997C69.733 113.482 73.6129 113.886 71.8399 115.627C70.067 117.369 62.6685 112.712 55.3149 105.227C47.9613 97.7409 43.4372 90.2606 45.2102 88.519C46.9831 86.7773 55.0258 98.5109 62.3794 105.997Z" fill="#FADAAD"/>
<path d="M177.497 83.2009C180.302 94.3571 173.457 105.693 162.209 108.52C150.961 111.348 139.569 104.596 136.765 93.4398C133.96 82.2836 167.308 95.9148 152.053 68.1203C136.799 40.3258 174.693 72.0447 177.497 83.2009Z" fill="#FADAAD"/>
<path d="M177.576 82.9458C180.38 94.102 173.535 105.438 162.287 108.265C151.039 111.093 139.647 104.341 136.843 93.1847C134.039 82.0285 164 94.7449 160 66.2449C156 37.7449 174.771 71.7896 177.576 82.9458Z" fill="#FADAAD"/>
</svg>
